<svg width="32" height="32" viewBox="0 0 32 32" xmlns="http://www.w3.org/2000/svg"><path d="M27.355 8.692H4.645C2.084 8.692 0 10.789 0 13.366v14.109c0 2.577 2.084 4.675 4.645 4.675h22.71c2.561 0 4.645-2.098 4.645-4.675V13.366c0-2.577-2.084-4.674-4.645-4.674zm-1.372 3.116l-1.426 1.133-7.597 6.035a1.543 1.543 0 01-1.92 0l-7.33-5.828-1.688-1.34zm1.372 17.225H4.645a1.555 1.555 0 01-1.548-1.558v-14.01l10.023 7.963a4.613 4.613 0 005.76 0l10.023-7.96v14.007c0 .859-.694 1.558-1.548 1.558z" fill="#063732"/></svg>