<svg width="32" height="32" viewBox="0 0 32 32" xmlns="http://www.w3.org/2000/svg"><path d="M4.655 32h22.69C29.912 32 32 29.929 32 27.383V13.487c0-1.253-.52-2.462-1.425-3.319-.077-.038-11.69-9.17-11.69-9.17a4.673 4.673 0 00-5.77 0l-11.5 9.004C.634 10.896-.01 12.133 0 13.487v13.896C0 29.929 2.088 32 4.655 32zM15.05 3.428a1.537 1.537 0 011.902 0l9.949 7.788-9.949 7.789c-.559.44-1.343.44-1.902 0L5.1 11.217zM3.121 13.612l9.994 7.824a4.674 4.674 0 005.77 0l9.994-7.824v13.77a1.53 1.53 0 01-1.534 1.522H4.655a1.53 1.53 0 01-1.534-1.521z" fill="#063732"/></svg>